<svg width="46" height="34" viewBox="0 0 46 34" fill="none" xmlns="http://www.w3.org/2000/svg" xmlns:xlink="http://www.w3.org/1999/xlink">
<path d="M13.131,2.393C14.654,0.861 16.725,0 18.886,0L38.511,0C42.62,0 45.952,3.332 45.952,7.441L45.952,26.559C45.952,30.668 42.62,34 38.511,34L18.886,34C16.725,34 14.654,33.139 13.131,31.607L0.972,19.385C-0.341,18.066 -0.341,15.934 0.972,14.615L13.131,2.393Z" clip-rule="evenodd" fill-rule="evenodd" stroke="#141313" stroke-width="1.353" stroke-miterlimit="3.999327"/>
<path d="M34.795,10.598C35.323,11.127 35.323,11.983 34.795,12.512L29.977,17.33L34.795,22.148C35.323,22.677 35.323,23.533 34.795,24.062C34.267,24.59 33.41,24.59 32.882,24.062L28.063,19.243L23.245,24.062C22.717,24.59 21.86,24.59 21.332,24.062C20.803,23.533 20.803,22.677 21.332,22.148L26.15,17.33L21.332,12.512C20.803,11.983 20.803,11.127 21.332,10.598C21.86,10.07 22.717,10.07 23.245,10.598L28.063,15.417L32.882,10.598C33.41,10.07 34.267,10.07 34.795,10.598Z" clip-rule="evenodd" fill-rule="evenodd" fill="#141313"/>
</svg>
