<svg width="34" height="18" viewBox="0 0 34 18" fill="none" xmlns="http://www.w3.org/2000/svg" xmlns:xlink="http://www.w3.org/1999/xlink">
<path d="M32,0.203L30,0.203C28.895,0.203 28,0.868 28,1.687L28,14.541C28,15.36 28.895,16.024 30,16.024L32,16.024C33.105,16.024 34,15.36 34,14.541L34,1.687C34,0.868 33.105,0.203 32,0.203ZM20.667,3.664L22.667,3.664C23.771,3.664 24.667,4.328 24.667,5.148L24.667,14.541C24.667,15.36 23.771,16.024 22.667,16.024L20.667,16.024C19.562,16.024 18.667,15.36 18.667,14.541L18.667,5.148C18.667,4.328 19.562,3.664 20.667,3.664ZM13.333,7.125L11.333,7.125C10.229,7.125 9.333,7.789 9.333,8.608L9.333,14.541C9.333,15.36 10.229,16.024 11.333,16.024L13.333,16.024C14.438,16.024 15.333,15.36 15.333,14.541L15.333,8.608C15.333,7.789 14.438,7.125 13.333,7.125ZM4,10.092L2,10.092C0.895,10.092 0,10.756 0,11.575L0,14.541C0,15.36 0.895,16.024 2,16.024L4,16.024C5.105,16.024 6,15.36 6,14.541L6,11.575C6,10.756 5.105,10.092 4,10.092Z" clip-rule="evenodd" fill-rule="evenodd" fill="#000000"/>
</svg>
