<svg width="34" height="22" viewBox="0 0 34 22" fill="none" xmlns="http://www.w3.org/2000/svg" xmlns:xlink="http://www.w3.org/1999/xlink">
<path d="M33.334,1.333C33.334,0.229 32.439,-0.667 31.334,-0.667L29.334,-0.667C28.229,-0.667 27.334,0.229 27.334,1.333L27.334,18.667C27.334,19.771 28.229,20.667 29.334,20.667L31.334,20.667C32.439,20.667 33.334,19.771 33.334,18.667L33.334,1.333ZM20.001,4L22.001,4C23.105,4 24.001,4.896 24.001,6L24.001,18.667C24.001,19.771 23.105,20.667 22.001,20.667L20.001,20.667C18.896,20.667 18.001,19.771 18.001,18.667L18.001,6C18.001,4.896 18.896,4 20.001,4ZM12.667,8.667L10.667,8.667C9.563,8.667 8.667,9.562 8.667,10.667L8.667,18.667C8.667,19.771 9.563,20.667 10.667,20.667L12.667,20.667C13.772,20.667 14.667,19.771 14.667,18.667L14.667,10.667C14.667,9.562 13.772,8.667 12.667,8.667ZM5.334,14.667C5.334,13.562 4.439,12.667 3.334,12.667L1.334,12.667C0.229,12.667 -0.666,13.562 -0.666,14.667L-0.666,18.667C-0.666,19.771 0.229,20.667 1.334,20.667L3.334,20.667C4.439,20.667 5.334,19.771 5.334,18.667L5.334,14.667Z" clip-rule="evenodd" fill-rule="evenodd" fill="#000000"/>
</svg>
