<svg width="34" height="16" viewBox="0 0 34 16" fill="none" xmlns="http://www.w3.org/2000/svg" xmlns:xlink="http://www.w3.org/1999/xlink">
<path d="M32,-0.303L30,-0.303C28.895,-0.303 28,0.348 28,1.152L28,13.758C28,14.561 28.895,15.212 30,15.212L32,15.212C33.105,15.212 34,14.561 34,13.758L34,1.152C34,0.348 33.105,-0.303 32,-0.303ZM20.667,3.091L22.667,3.091C23.771,3.091 24.667,3.742 24.667,4.546L24.667,13.758C24.667,14.561 23.771,15.212 22.667,15.212L20.667,15.212C19.562,15.212 18.667,14.561 18.667,13.758L18.667,4.546C18.667,3.742 19.562,3.091 20.667,3.091ZM13.333,6.485L11.333,6.485C10.229,6.485 9.333,7.136 9.333,7.94L9.333,13.758C9.333,14.561 10.229,15.212 11.333,15.212L13.333,15.212C14.438,15.212 15.333,14.561 15.333,13.758L15.333,7.94C15.333,7.136 14.438,6.485 13.333,6.485ZM4,9.394L2,9.394C0.895,9.394 0,10.045 0,10.849L0,13.758C0,14.561 0.895,15.212 2,15.212L4,15.212C5.105,15.212 6,14.561 6,13.758L6,10.849C6,10.045 5.105,9.394 4,9.394Z" clip-rule="evenodd" fill-rule="evenodd" fill="#000000"/>
</svg>
