<svg width="34" height="22" viewBox="0 0 34 22" fill="none" xmlns="http://www.w3.org/2000/svg" xmlns:xlink="http://www.w3.org/1999/xlink">
<path d="M33.333,1.333C33.333,0.229 32.438,-0.667 31.333,-0.667L29.333,-0.667C28.229,-0.667 27.333,0.229 27.333,1.333L27.333,18.667C27.333,19.771 28.229,20.667 29.333,20.667L31.333,20.667C32.438,20.667 33.333,19.771 33.333,18.667L33.333,1.333ZM20,4L22,4C23.105,4 24,4.895 24,6L24,18.667C24,19.771 23.105,20.667 22,20.667L20,20.667C18.896,20.667 18,19.771 18,18.667L18,6C18,4.895 18.896,4 20,4ZM12.667,8.667L10.667,8.667C9.562,8.667 8.667,9.562 8.667,10.667L8.667,18.667C8.667,19.771 9.562,20.667 10.667,20.667L12.667,20.667C13.771,20.667 14.667,19.771 14.667,18.667L14.667,10.667C14.667,9.562 13.771,8.667 12.667,8.667ZM5.333,14.667C5.333,13.562 4.438,12.667 3.333,12.667L1.333,12.667C0.229,12.667 -0.667,13.562 -0.667,14.667L-0.667,18.667C-0.667,19.771 0.229,20.667 1.333,20.667L3.333,20.667C4.438,20.667 5.333,19.771 5.333,18.667L5.333,14.667Z" clip-rule="evenodd" fill-rule="evenodd" fill="#000000"/>
</svg>
