<svg width="40" height="36" viewBox="0 0 40 36" fill="none" xmlns="http://www.w3.org/2000/svg" xmlns:xlink="http://www.w3.org/1999/xlink">
<path d="M21.762,1.284C20.974,0.461 19.66,0.461 18.872,1.284L1.222,19.725C0.004,20.997 0.906,23.107 2.667,23.107L10.65,23.107L10.65,29.774C10.65,31.641 10.65,32.574 11.014,33.287C11.333,33.915 11.843,34.425 12.471,34.744C13.184,35.107 14.117,35.107 15.984,35.107L24.65,35.107C26.517,35.107 27.451,35.107 28.164,34.744C28.791,34.425 29.301,33.915 29.621,33.287C29.984,32.574 29.984,31.641 29.984,29.774L29.984,23.107L37.968,23.107C39.728,23.107 40.63,20.997 39.413,19.725L21.762,1.284Z" clip-rule="evenodd" fill-rule="evenodd" stroke="#000000" stroke-width="1.333" stroke-miterlimit="3.999327"/>
</svg>
