<svg width="48" height="48" viewBox="0 0 48 48" fill="none" xmlns="http://www.w3.org/2000/svg" xmlns:xlink="http://www.w3.org/1999/xlink">
<path d="M24,8C27.86,8 34,10.8 34,18.3C34,22.62 30.56,27.64 24,32.94C17.44,27.64 14,22.6 14,18.3C14,10.8 20.14,8 24,8ZM24,4C17.46,4 10,8.92 10,18.3C10,24.54 14.66,31.12 24,38C33.34,31.12 38,24.54 38,18.3C38,8.92 30.54,4 24,4Z" fill="#C95A87"/>
<path d="M24,14C21.8,14 20,15.8 20,18C20,20.2 21.8,22 24,22C25.061,22 26.078,21.579 26.828,20.828C27.579,20.078 28,19.061 28,18C28,16.939 27.579,15.922 26.828,15.172C26.078,14.421 25.061,14 24,14L24,14ZM10,40L38,40L38,44L10,44L10,40Z" fill="#C95A87"/>
</svg>
