<svg width="36" height="34" viewBox="0 0 36 34" fill="none" xmlns="http://www.w3.org/2000/svg" xmlns:xlink="http://www.w3.org/1999/xlink">
<path d="M33,4.25L34.49,5.584C35.016,4.996 35.148,4.154 34.826,3.434C34.504,2.714 33.789,2.25 33,2.25L33,4.25ZM3,4.25L3,2.25C2.211,2.25 1.496,2.714 1.174,3.434C0.852,4.154 0.984,4.996 1.51,5.584L3,4.25ZM15,17.652L17,17.652C17,17.159 16.818,16.684 16.49,16.318L15,17.652ZM15,26.917L13,26.917C13,27.69 13.446,28.395 14.146,28.725L15,26.917ZM21,29.75L20.146,31.558C20.766,31.851 21.492,31.806 22.07,31.439C22.649,31.073 23,30.435 23,29.75L21,29.75ZM21,17.652L19.51,16.318C19.182,16.684 19,17.159 19,17.652L21,17.652ZM33,2.25L3,2.25L3,6.25L33,6.25L33,2.25ZM1.51,5.584L13.51,18.986L16.49,16.318L4.49,2.916L1.51,5.584ZM13,17.652L13,26.917L17,26.917L17,17.652L13,17.652ZM14.146,28.725L20.146,31.558L21.854,27.942L15.854,25.108L14.146,28.725ZM22.49,18.986L34.49,5.584L31.51,2.916L19.51,16.318L22.49,18.986ZM23,29.75L23,23.701L19,23.701L19,29.75L23,29.75ZM23,23.701L23,17.652L19,17.652L19,23.701L23,23.701Z" fill="#232327"/>
<path d="M21,17L15,17L15,25.311L21,28.333L21,17Z" fill="#232327"/>
</svg>
