<svg width="50" height="48" viewBox="0 0 50 48" fill="none" xmlns="http://www.w3.org/2000/svg" xmlns:xlink="http://www.w3.org/1999/xlink">
<path d="M24.164,8C28.035,8 34.193,10.8 34.193,18.3C34.193,22.62 30.743,27.64 24.164,32.94C17.585,27.64 14.135,22.6 14.135,18.3C14.135,10.8 20.293,8 24.164,8ZM24.164,4C17.605,4 10.123,8.92 10.123,18.3C10.123,24.54 14.797,31.12 24.164,38C33.531,31.12 38.205,24.54 38.205,18.3C38.205,8.92 30.723,4 24.164,4Z" fill="#C95A87"/>
<path d="M24.164,14C21.957,14 20.152,15.8 20.152,18C20.152,20.2 21.957,22 24.164,22C25.228,22 26.248,21.579 27.001,20.828C27.753,20.078 28.176,19.061 28.176,18C28.176,16.939 27.753,15.922 27.001,15.172C26.248,14.421 25.228,14 24.164,14L24.164,14ZM10.123,40L38.205,40L38.205,44L10.123,44L10.123,40Z" fill="#C95A87"/>
</svg>
