<svg width="52" height="52" viewBox="0 0 52 52" fill="none" xmlns="http://www.w3.org/2000/svg" xmlns:xlink="http://www.w3.org/1999/xlink">
<path d="M26,0C40.359,0 52,11.641 52,26C52,40.359 40.359,52 26,52C11.641,52 0,40.359 0,26C0,11.641 11.641,0 26,0ZM26,3.029C38.686,3.03 48.969,13.316 48.968,26.002C48.967,38.688 38.683,48.971 25.997,48.971C13.31,48.971 3.026,38.686 3.026,26C3.027,19.907 5.447,14.064 9.756,9.756C14.064,5.448 19.907,3.028 26,3.029L26,3.029ZM17.775,14.722C16.971,14.713 16.197,15.026 15.626,15.592C15.056,16.157 14.735,16.928 14.737,17.732C14.737,19.41 16.097,20.769 17.775,20.769C19.452,20.769 20.812,19.41 20.812,17.732C20.814,16.928 20.494,16.157 19.923,15.592C19.352,15.026 18.579,14.713 17.775,14.722L17.775,14.722ZM25.993,44.606C17.341,44.873 9.496,38.051 7.993,30.606C7.733,28.808 9.912,28.372 11.336,28.717C16.1,30.095 21.041,30.765 26,30.706C30.948,30.763 35.877,30.095 40.632,28.724C42.016,28.372 44.165,28.769 43.971,30.606C42.609,37.96 34.722,44.873 25.993,44.606ZM38.216,31.655C38.202,31.661 38.659,31.512 38.646,31.518C34.535,32.65 30.285,33.199 26.347,33.343C20.933,33.15 16.383,32.584 13.251,31.46C10.98,30.784 11.416,33.455 13.012,34.274C17.094,36.133 21.536,37.069 26.347,37.343C31.356,37.017 36.11,35.776 39.25,34.17C40.736,33.215 41.03,30.654 38.627,31.518C38.492,31.57 38.355,31.609 38.216,31.655ZM34.242,14.722C33.438,14.713 32.664,15.026 32.093,15.592C31.522,16.157 31.202,16.928 31.204,17.732C31.188,18.828 31.763,19.847 32.71,20.4C33.656,20.953 34.827,20.953 35.774,20.4C36.72,19.847 37.295,18.828 37.279,17.732C37.281,16.928 36.961,16.158 36.39,15.592C35.819,15.026 35.046,14.713 34.242,14.722L34.242,14.722Z" clip-rule="evenodd" fill-rule="evenodd" fill="#50555C"/>
</svg>
