<svg width="44" height="26" viewBox="0 0 44 26" fill="none" xmlns="http://www.w3.org/2000/svg" xmlns:xlink="http://www.w3.org/1999/xlink">
<path d="M0.166,1L0.166,0C-0.386,0 -0.834,0.448 -0.834,1L0.166,1ZM41.833,1L42.833,1C42.833,0.448 42.385,0 41.833,0L41.833,1ZM41.833,25L41.833,26C42.385,26 42.833,25.552 42.833,25L41.833,25ZM0.166,25L-0.834,25C-0.834,25.552 -0.386,26 0.166,26L0.166,25ZM0.166,2L41.833,2L41.833,0L0.166,0L0.166,2ZM40.833,1L40.833,25L42.833,25L42.833,1L40.833,1ZM41.833,24L0.166,24L0.166,26L41.833,26L41.833,24ZM1.166,25L1.166,1L-0.834,1L-0.834,25L1.166,25Z" fill="#000000"/>
<path d="M0.166,9L-0.834,9C-0.834,9.552 -0.386,10 0.166,10L0.166,9ZM8.499,1L9.499,1C9.499,0.448 9.052,0 8.499,0L8.499,1ZM0.166,1L0.166,0C-0.386,0 -0.834,0.448 -0.834,1L0.166,1ZM0.166,10C5.282,10 9.499,6.009 9.499,1L7.499,1C7.499,4.828 4.255,8 0.166,8L0.166,10ZM8.499,0L0.166,0L0.166,2L8.499,2L8.499,0ZM-0.834,1L-0.834,9L1.166,9L1.166,1L-0.834,1Z" fill="#000000"/>
<path d="M0.166,17L0.166,16C-0.386,16 -0.834,16.448 -0.834,17L0.166,17ZM8.499,25L8.499,26C9.052,26 9.499,25.552 9.499,25L8.499,25ZM0.166,25L-0.834,25C-0.834,25.552 -0.386,26 0.166,26L0.166,25ZM0.166,18C4.255,18 7.499,21.172 7.499,25L9.499,25C9.499,19.991 5.282,16 0.166,16L0.166,18ZM8.499,24L0.166,24L0.166,26L8.499,26L8.499,24ZM1.166,25L1.166,17L-0.834,17L-0.834,25L1.166,25Z" fill="#000000"/>
<path d="M41.833,17L42.833,17C42.833,16.448 42.386,16 41.833,16L41.833,17ZM41.833,25L41.833,26C42.386,26 42.833,25.552 42.833,25L41.833,25ZM33.5,25L32.5,25C32.5,25.552 32.948,26 33.5,26L33.5,25ZM40.833,17L40.833,25L42.833,25L42.833,17L40.833,17ZM41.833,24L33.5,24L33.5,26L41.833,26L41.833,24ZM34.5,25C34.5,21.172 37.744,18 41.833,18L41.833,16C36.718,16 32.5,19.991 32.5,25L34.5,25Z" fill="#000000"/>
<path d="M41.833,9L41.833,10C42.386,10 42.833,9.552 42.833,9L41.833,9ZM33.5,1L33.5,0C32.948,0 32.5,0.448 32.5,1L33.5,1ZM41.833,1L42.833,1C42.833,0.448 42.386,0 41.833,0L41.833,1ZM41.833,8C37.744,8 34.5,4.828 34.5,1L32.5,1C32.5,6.009 36.718,10 41.833,10L41.833,8ZM33.5,2L41.833,2L41.833,0L33.5,0L33.5,2ZM40.833,1L40.833,9L42.833,9L42.833,1L40.833,1Z" fill="#000000"/>
<path d="M20.999,20C24.556,20 27.208,16.728 27.208,13L25.208,13C25.208,15.899 23.195,18 20.999,18L20.999,20ZM27.208,13C27.208,9.272 24.556,6 20.999,6L20.999,8C23.195,8 25.208,10.101 25.208,13L27.208,13ZM20.999,6C17.442,6 14.791,9.272 14.791,13L16.791,13C16.791,10.101 18.803,8 20.999,8L20.999,6ZM14.791,13C14.791,16.728 17.442,20 20.999,20L20.999,18C18.803,18 16.791,15.899 16.791,13L14.791,13Z" fill="#000000"/>
</svg>
