<svg width="42" height="36" viewBox="0 0 42 36" fill="none" xmlns="http://www.w3.org/2000/svg" xmlns:xlink="http://www.w3.org/1999/xlink">
<path d="M38.216,18.44C38.216,7.46 29.671,0 20.164,0C10.756,0 2.111,7.3 2.111,18.56C0.908,19.24 0.105,20.52 0.105,22L0.105,26C0.105,28.2 1.911,30 4.117,30L6.123,30L6.123,17.8C6.123,10.06 12.401,3.8 20.164,3.8C27.926,3.8 34.205,10.06 34.205,17.8L34.205,32L18.158,32L18.158,36L34.205,36C36.411,36 38.216,34.2 38.216,32L38.216,29.56C39.4,28.94 40.222,27.72 40.222,26.28L40.222,21.68C40.222,20.28 39.4,19.06 38.216,18.44Z" fill="#C95A87"/>
<path d="M14.146,22C15.254,22 16.152,21.105 16.152,20C16.152,18.895 15.254,18 14.146,18C13.039,18 12.141,18.895 12.141,20C12.141,21.105 13.039,22 14.146,22Z" fill="#828282"/>
<path d="M26.182,22C27.289,22 28.187,21.105 28.187,20C28.187,18.895 27.289,18 26.182,18C25.074,18 24.176,18.895 24.176,20C24.176,21.105 25.074,22 26.182,22Z" fill="#828282"/>
<path d="M32.198,16.06C31.235,10.36 26.261,6 20.263,6C14.185,6 7.646,11.02 8.168,18.9C13.122,16.88 16.853,12.48 17.916,7.12C20.544,12.38 25.94,16 32.198,16.06Z" fill="#C95A87"/>
</svg>
