<svg width="40" height="36" viewBox="0 0 40 36" fill="none" xmlns="http://www.w3.org/2000/svg" xmlns:xlink="http://www.w3.org/1999/xlink">
<path d="M38,18.44C38,7.46 29.48,0 20,0C10.62,0 2,7.3 2,18.56C0.8,19.24 0,20.52 0,22L0,26C0,28.2 1.8,30 4,30L6,30L6,17.8C6,10.06 12.26,3.8 20,3.8C27.74,3.8 34,10.06 34,17.8L34,32L18,32L18,36L34,36C36.2,36 38,34.2 38,32L38,29.56C39.18,28.94 40,27.72 40,26.28L40,21.68C40,20.28 39.18,19.06 38,18.44Z" fill="#C95A87"/>
<circle cx="14" cy="20" r="2" fill="#828282"/>
<circle cx="26" cy="20" r="2" fill="#828282"/>
<path d="M32.001,16.06C31.041,10.36 26.081,6 20.101,6C14.041,6 7.521,11.02 8.041,18.9C12.981,16.88 16.701,12.48 17.761,7.12C20.381,12.38 25.761,16 32.001,16.06Z" fill="#C95A87"/>
</svg>
