<svg width="28" height="30" viewBox="0 0 28 30" fill="none" xmlns="http://www.w3.org/2000/svg" xmlns:xlink="http://www.w3.org/1999/xlink">
<path d="M21.667,29C24.583,29 27.001,26.701 27.001,23.8L25.001,23.8C25.001,25.538 23.538,27 21.667,27L21.667,29ZM27.001,23.8C27.001,20.899 24.583,18.6 21.667,18.6L21.667,20.6C23.538,20.6 25.001,22.062 25.001,23.8L27.001,23.8ZM21.667,18.6C18.751,18.6 16.334,20.899 16.334,23.8L18.334,23.8C18.334,22.062 19.797,20.6 21.667,20.6L21.667,18.6ZM16.334,23.8C16.334,26.701 18.751,29 21.667,29L21.667,27C19.797,27 18.334,25.538 18.334,23.8L16.334,23.8Z" fill="#000000"/>
<path d="M21.667,9.4C24.583,9.4 27.001,7.101 27.001,4.2L25.001,4.2C25.001,5.938 23.538,7.4 21.667,7.4L21.667,9.4ZM27.001,4.2C27.001,1.299 24.583,-1 21.667,-1L21.667,1C23.538,1 25.001,2.462 25.001,4.2L27.001,4.2ZM21.667,-1C18.751,-1 16.334,1.299 16.334,4.2L18.334,4.2C18.334,2.462 19.797,1 21.667,1L21.667,-1ZM16.334,4.2C16.334,7.101 18.751,9.4 21.667,9.4L21.667,7.4C19.797,7.4 18.334,5.938 18.334,4.2L16.334,4.2Z" fill="#000000"/>
<path d="M4.333,19.2C7.249,19.2 9.667,16.901 9.667,14L7.667,14C7.667,15.738 6.204,17.2 4.333,17.2L4.333,19.2ZM9.667,14C9.667,11.099 7.249,8.8 4.333,8.8L4.333,10.8C6.204,10.8 7.667,12.262 7.667,14L9.667,14ZM4.333,8.8C1.418,8.8 -1,11.099 -1,14L1,14C1,12.262 2.463,10.8 4.333,10.8L4.333,8.8ZM-1,14C-1,16.901 1.418,19.2 4.333,19.2L4.333,17.2C2.463,17.2 1,15.738 1,14L-1,14Z" fill="#000000"/>
<path d="M17.57,5.425L7.459,11.025L8.428,12.775L18.539,7.175L17.57,5.425Z" fill="#000000"/>
<path d="M7.459,16.975L17.57,22.575L18.539,20.825L8.428,15.225L7.459,16.975Z" fill="#000000"/>
</svg>
