<svg width="28" height="32" viewBox="0 0 28 32" fill="none" xmlns="http://www.w3.org/2000/svg" xmlns:xlink="http://www.w3.org/1999/xlink">
<path d="M7.745,2.596C6.97,0.527 4.664,-0.521 2.596,0.255C0.527,1.03 -0.521,3.336 0.255,5.404L7.745,2.596ZM13,28L9.255,29.404C9.84,30.966 11.333,32 13,32C14.667,32 16.16,30.966 16.745,29.404L13,28ZM25.745,5.404C26.521,3.336 25.473,1.03 23.405,0.255C21.336,-0.521 19.03,0.527 18.255,2.596L25.745,5.404ZM0.255,5.404L9.255,29.404L16.745,26.596L7.745,2.596L0.255,5.404ZM16.745,29.404L25.745,5.404L18.255,2.596L9.255,26.596L16.745,29.404Z" fill="#000000"/>
</svg>
