<svg width="38" height="40" viewBox="0 0 38 40" fill="none" xmlns="http://www.w3.org/2000/svg" xmlns:xlink="http://www.w3.org/1999/xlink">
<path d="M8.135,18L12.146,18L12.146,22L8.135,22L8.135,18ZM36.216,8L36.216,36C36.216,38.2 34.411,40 32.205,40L4.123,40C1.897,40 0.111,38.2 0.111,36L0.131,8C0.131,5.8 1.897,4 4.123,4L6.129,4L6.129,0L10.14,0L10.14,4L26.187,4L26.187,0L30.199,0L30.199,4L32.205,4C34.411,4 36.216,5.8 36.216,8ZM4.123,12L32.205,12L32.205,8L4.123,8L4.123,12ZM32.205,36L32.205,16L4.123,16L4.123,36L32.205,36ZM24.181,22L28.193,22L28.193,18L24.181,18L24.181,22ZM16.158,22L20.17,22L20.17,18L16.158,18L16.158,22Z" fill="#C95A87"/>
</svg>
