<svg width="40" height="38" viewBox="0 0 40 38" fill="none" xmlns="http://www.w3.org/2000/svg" xmlns:xlink="http://www.w3.org/1999/xlink">
<path d="M20.001,38C22.201,38 24.001,36.2 24.001,34L16.001,34C16.001,36.2 17.801,38 20.001,38ZM32.001,26L32.001,16C32.001,9.86 28.741,4.72 23.001,3.36L23.001,2C23.001,0.34 21.661,-1 20.001,-1C18.341,-1 17.001,0.34 17.001,2L17.001,3.36C11.281,4.72 8.001,9.84 8.001,16L8.001,26L4.001,30L4.001,32L36.001,32L36.001,30L32.001,26ZM28.001,28L12.001,28L12.001,16C12.001,11.04 15.021,7 20.001,7C24.981,7 28.001,11.04 28.001,16L28.001,28ZM11.161,2.16L8.301,-0.7C3.501,2.96 0.341,8.6 0.061,15L4.061,15C4.361,9.7 7.081,5.06 11.161,2.16L11.161,2.16ZM35.941,15L39.941,15C39.641,8.6 36.481,2.96 31.701,-0.7L28.861,2.16C32.901,5.06 35.641,9.7 35.941,15Z" fill="#C95A87"/>
</svg>
