<svg width="30" height="30" viewBox="0 0 30 30" fill="none" xmlns="http://www.w3.org/2000/svg" xmlns:xlink="http://www.w3.org/1999/xlink">
<path d="M19.833,17.333L18.517,17.333L18.05,16.883C19.683,14.983 20.667,12.517 20.667,9.833C20.667,3.85 15.817,-1 9.833,-1C3.85,-1 -1,3.85 -1,9.833C-1,15.817 3.85,20.667 9.833,20.667C12.517,20.667 14.983,19.683 16.883,18.05L17.333,18.517L17.333,19.833L25.667,28.15L28.15,25.667L19.833,17.333L19.833,17.333ZM9.833,17.333C5.683,17.333 2.333,13.983 2.333,9.833C2.333,5.683 5.683,2.333 9.833,2.333C13.983,2.333 17.333,5.683 17.333,9.833C17.333,13.983 13.983,17.333 9.833,17.333Z" fill="#BBBBBB"/>
</svg>
