<svg width="36" height="28" viewBox="0 0 36 28" fill="none" xmlns="http://www.w3.org/2000/svg" xmlns:xlink="http://www.w3.org/1999/xlink">
<path d="M34,16C35.105,16 36,15.105 36,14C36,12.895 35.105,12 34,12L34,16ZM2,14L0.769,12.424C0.284,12.803 0,13.384 0,14C0,14.616 0.284,15.197 0.769,15.576L2,14ZM18.591,3.576C19.462,2.896 19.616,1.639 18.936,0.769C18.256,-0.102 16.999,-0.256 16.129,0.424L18.591,3.576ZM16.129,27.576C16.999,28.256 18.256,28.102 18.936,27.231C19.616,26.361 19.462,25.104 18.591,24.424L16.129,27.576ZM34,12L2,12L2,16L34,16L34,12ZM3.231,15.576L18.591,3.576L16.129,0.424L0.769,12.424L3.231,15.576ZM0.769,15.576L16.129,27.576L18.591,24.424L3.231,12.424L0.769,15.576Z" fill="#000000"/>
</svg>
