<svg width="30" height="30" viewBox="0 0 30 30" fill="none" xmlns="http://www.w3.org/2000/svg" xmlns:xlink="http://www.w3.org/1999/xlink">
<path d="M13.877,18.1C17.323,18.1 20.084,16.023 20.084,13.45L20.105,4.15C20.105,1.577 17.323,-0.5 13.877,-0.5C10.431,-0.5 7.65,1.577 7.65,4.15L7.65,13.45C7.65,16.023 10.431,18.1 13.877,18.1ZM11.386,3.995C11.386,2.972 12.507,2.135 13.877,2.135C15.247,2.135 16.368,2.972 16.368,3.995L16.347,13.605C16.347,14.628 15.247,15.465 13.877,15.465C12.507,15.465 11.386,14.628 11.386,13.605L11.386,3.995ZM24.879,13.45C24.879,18.1 19.606,21.355 13.877,21.355C8.148,21.355 2.876,18.1 2.876,13.45L-0.653,13.45C-0.653,18.735 4.993,23.106 11.801,23.866L11.801,28.95L15.953,28.95L15.953,23.866C22.762,23.122 28.408,18.751 28.408,13.45L24.879,13.45Z" fill="#BBBBBB"/>
</svg>
