<svg width="54" height="46" viewBox="0 0 54 46" fill="none" xmlns="http://www.w3.org/2000/svg" xmlns:xlink="http://www.w3.org/1999/xlink">
<path d="M20.181,42.682L20.181,28.818L31.818,28.818L31.818,42.682C31.818,44.207 33.127,45.455 34.727,45.455L43.454,45.455C45.054,45.455 46.363,44.207 46.363,42.682L46.363,23.273L51.309,23.273C52.647,23.273 53.287,21.693 52.269,20.861L27.949,-0.018C26.843,-0.961 25.156,-0.961 24.05,-0.018L-0.27,20.861C-1.259,21.693 -0.648,23.273 0.69,23.273L5.636,23.273L5.636,42.682C5.636,44.207 6.945,45.455 8.545,45.455L17.272,45.455C18.872,45.455 20.181,44.207 20.181,42.682Z" fill="#000000"/>
</svg>
