<svg width="42" height="38" viewBox="0 0 42 38" fill="none" xmlns="http://www.w3.org/2000/svg" xmlns:xlink="http://www.w3.org/1999/xlink">
<path d="M29.19,0C25.7,0 22.35,1.62 20.164,4.18C17.977,1.62 14.628,0 11.138,0C4.96,0 0.105,4.84 0.105,11C0.105,18.56 6.925,24.72 17.255,34.08L20.164,36.7L23.072,34.06C33.402,24.72 40.222,18.56 40.222,11C40.222,4.84 35.368,0 29.19,0ZM20.364,31.1L20.164,31.3L19.963,31.1C10.415,22.48 4.117,16.78 4.117,11C4.117,7 7.126,4 11.138,4C14.227,4 17.235,5.98 18.298,8.72L22.049,8.72C23.092,5.98 26.101,4 29.19,4C33.202,4 36.21,7 36.21,11C36.21,16.78 29.912,22.48 20.364,31.1Z" fill="#C95A87"/>
</svg>
