<svg width="54" height="46" viewBox="0 0 54 46" fill="none" xmlns="http://www.w3.org/2000/svg" xmlns:xlink="http://www.w3.org/1999/xlink">
<path d="M20.183,42.682L20.183,28.818L31.82,28.818L31.82,42.682C31.82,44.207 33.129,45.454 34.729,45.454L43.456,45.454C45.056,45.454 46.365,44.207 46.365,42.682L46.365,23.273L51.311,23.273C52.649,23.273 53.289,21.692 52.271,20.86L27.951,-0.018C26.845,-0.961 25.158,-0.961 24.052,-0.018L-0.268,20.86C-1.257,21.692 -0.646,23.273 0.692,23.273L5.638,23.273L5.638,42.682C5.638,44.207 6.947,45.454 8.547,45.454L17.274,45.454C18.874,45.454 20.183,44.207 20.183,42.682Z" fill="#000000"/>
</svg>
