<svg width="42" height="38" viewBox="0 0 42 38" fill="none" xmlns="http://www.w3.org/2000/svg" xmlns:xlink="http://www.w3.org/1999/xlink">
<path d="M20.164,38C22.371,38 24.176,36.2 24.176,34L16.152,34C16.152,36.2 17.958,38 20.164,38ZM32.199,26L32.199,16C32.199,9.86 28.93,4.72 23.173,3.36L23.173,2C23.173,0.34 21.829,-1 20.164,-1C18.499,-1 17.155,0.34 17.155,2L17.155,3.36C11.419,4.72 8.129,9.84 8.129,16L8.129,26L4.117,30L4.117,32L36.211,32L36.211,30L32.199,26ZM28.187,28L12.141,28L12.141,16C12.141,11.04 15.17,7 20.164,7C25.159,7 28.187,11.04 28.187,16L28.187,28ZM11.298,2.16L8.43,-0.7C3.616,2.96 0.447,8.6 0.166,15L4.178,15C4.479,9.7 7.206,5.06 11.298,2.16L11.298,2.16ZM36.151,15L40.162,15C39.861,8.6 36.692,2.96 31.898,-0.7L29.05,2.16C33.102,5.06 35.85,9.7 36.151,15Z" fill="#C95A87"/>
</svg>
