<svg width="22" height="36" viewBox="0 0 22 36" fill="none" xmlns="http://www.w3.org/2000/svg" xmlns:xlink="http://www.w3.org/1999/xlink">
<path d="M10.899,21.6C13.454,21.6 15.501,19.188 15.501,16.2L15.517,5.4C15.517,2.412 13.454,0 10.899,0C8.343,0 6.28,2.412 6.28,5.4L6.28,16.2C6.28,19.188 8.343,21.6 10.899,21.6ZM9.051,5.22C9.051,4.032 9.883,3.06 10.899,3.06C11.915,3.06 12.746,4.032 12.746,5.22L12.73,16.38C12.73,17.568 11.915,18.54 10.899,18.54C9.883,18.54 9.051,17.568 9.051,16.38L9.051,5.22ZM19.057,16.2C19.057,21.6 15.147,25.38 10.899,25.38C6.65,25.38 2.74,21.6 2.74,16.2L0.123,16.2C0.123,22.338 4.31,27.414 9.359,28.296L9.359,34.2L12.438,34.2L12.438,28.296C17.487,27.432 21.674,22.356 21.674,16.2L19.057,16.2Z" fill="#BBBBBB"/>
</svg>
