<svg width="34" height="32" viewBox="0 0 34 32" fill="none" xmlns="http://www.w3.org/2000/svg" xmlns:xlink="http://www.w3.org/1999/xlink">
<path d="M16.164,4C18.37,4 20.176,5.8 20.176,8C20.176,10.2 18.37,12 16.164,12C13.957,12 12.152,10.2 12.152,8C12.152,5.8 13.957,4 16.164,4ZM16.164,24C21.58,24 27.798,26.58 28.199,28L4.129,28C4.59,26.56 10.768,24 16.164,24ZM16.164,0C11.731,0 8.141,3.58 8.141,8C8.141,12.42 11.731,16 16.164,16C20.597,16 24.187,12.42 24.187,8C24.187,3.58 20.597,0 16.164,0ZM16.164,20C10.808,20 0.117,22.68 0.117,28L0.117,32L32.21,32L32.21,28C32.21,22.68 21.519,20 16.164,20Z" fill="#C95A87"/>
</svg>
