<svg width="48" height="42" viewBox="0 0 48 42" fill="none" xmlns="http://www.w3.org/2000/svg" xmlns:xlink="http://www.w3.org/1999/xlink">
<path d="M34.499,-1C30.439,-1 26.543,0.89 23.999,3.877C21.456,0.89 17.559,-1 13.499,-1C6.313,-1 0.666,4.647 0.666,11.833C0.666,20.653 8.599,27.84 20.616,38.76L23.999,41.817L27.383,38.737C39.399,27.84 47.333,20.653 47.333,11.833C47.333,4.647 41.686,-1 34.499,-1ZM24.233,35.283L23.999,35.517L23.766,35.283C12.659,25.227 5.333,18.577 5.333,11.833C5.333,7.167 8.833,3.667 13.499,3.667C17.093,3.667 20.593,5.977 21.829,9.173L26.193,9.173C27.406,5.977 30.906,3.667 34.499,3.667C39.166,3.667 42.666,7.167 42.666,11.833C42.666,18.577 35.339,25.227 24.233,35.283Z" fill="#141313"/>
</svg>
