<svg width="28" height="32" viewBox="0 0 28 32" fill="none" xmlns="http://www.w3.org/2000/svg" xmlns:xlink="http://www.w3.org/1999/xlink">
<path d="M21.481,23.603L21.481,11.566L17.74,11.566L17.74,23.603L12.13,23.603L19.61,30.454L27.091,23.603L21.481,23.603L21.481,23.603ZM8.39,-0.455L0.909,6.397L6.52,6.397L6.52,18.434L10.26,18.434L10.26,6.397L15.87,6.397L8.39,-0.455ZM21.481,23.603L21.481,11.566L17.74,11.566L17.74,23.603L12.13,23.603L19.61,30.454L27.091,23.603L21.481,23.603ZM8.39,-0.455L0.909,6.397L6.52,6.397L6.52,18.434L10.26,18.434L10.26,6.397L15.87,6.397L8.39,-0.455Z" fill="#232327"/>
</svg>
