<svg width="32" height="18" viewBox="0 0 32 18" fill="none" xmlns="http://www.w3.org/2000/svg" xmlns:xlink="http://www.w3.org/1999/xlink">
<path d="M15.334,3.093C19.784,3.093 24.063,4.36 27.288,6.632C27.53,6.807 27.919,6.805 28.158,6.627L30.479,4.891C30.6,4.801 30.668,4.678 30.667,4.551C30.666,4.424 30.596,4.302 30.474,4.213C22.01,-1.798 8.657,-1.798 0.193,4.213C0.071,4.302 0.001,4.424 0,4.551C-0.001,4.678 0.066,4.801 0.187,4.891L2.509,6.627C2.748,6.805 3.137,6.807 3.379,6.632C6.604,4.36 10.884,3.093 15.334,3.093ZM15.334,8.741C17.779,8.741 20.136,9.414 21.948,10.63C22.194,10.802 22.58,10.799 22.819,10.621L25.137,8.885C25.259,8.794 25.327,8.671 25.325,8.543C25.323,8.414 25.252,8.292 25.128,8.203C19.609,4.399 11.064,4.399 5.545,8.203C5.421,8.292 5.349,8.414 5.348,8.543C5.346,8.671 5.414,8.795 5.537,8.885L7.854,10.621C8.093,10.799 8.479,10.802 8.725,10.63C10.535,9.415 12.891,8.741 15.334,8.741ZM19.979,12.54C19.982,12.669 19.914,12.793 19.79,12.883L15.779,15.882C15.662,15.97 15.501,16.02 15.334,16.02C15.167,16.02 15.007,15.97 14.889,15.882L10.878,12.883C10.754,12.793 10.686,12.669 10.689,12.54C10.693,12.412 10.768,12.29 10.897,12.203C13.459,10.598 17.21,10.598 19.771,12.203C19.9,12.29 19.975,12.412 19.979,12.54Z" clip-rule="evenodd" fill-rule="evenodd" fill="#000000"/>
</svg>
