<svg width="32" height="16" viewBox="0 0 32 16" fill="none" xmlns="http://www.w3.org/2000/svg" xmlns:xlink="http://www.w3.org/1999/xlink">
<path d="M15.334,2.531C19.784,2.531 24.063,3.773 27.288,6.001C27.53,6.173 27.919,6.171 28.158,5.996L30.479,4.294C30.6,4.205 30.668,4.085 30.667,3.961C30.666,3.836 30.596,3.716 30.474,3.629C22.01,-2.265 8.657,-2.265 0.193,3.629C0.071,3.716 0.001,3.836 0,3.96C-0.001,4.085 0.066,4.205 0.187,4.294L2.509,5.996C2.748,6.171 3.137,6.173 3.379,6.001C6.604,3.773 10.884,2.531 15.334,2.531ZM15.334,8.069C17.779,8.069 20.136,8.729 21.948,9.922C22.194,10.091 22.58,10.087 22.819,9.914L25.137,8.211C25.259,8.122 25.327,8.001 25.325,7.875C25.323,7.749 25.252,7.629 25.128,7.542C19.609,3.811 11.064,3.811 5.545,7.542C5.421,7.629 5.349,7.749 5.348,7.875C5.346,8.001 5.414,8.122 5.537,8.211L7.854,9.914C8.093,10.087 8.479,10.091 8.725,9.922C10.535,8.73 12.891,8.07 15.334,8.069ZM19.979,11.796C19.982,11.922 19.914,12.043 19.79,12.132L15.779,15.073C15.662,15.159 15.501,15.208 15.334,15.208C15.167,15.208 15.007,15.159 14.889,15.073L10.878,12.132C10.754,12.043 10.686,11.922 10.689,11.795C10.693,11.669 10.768,11.55 10.897,11.465C13.459,9.891 17.21,9.891 19.771,11.465C19.9,11.55 19.975,11.669 19.979,11.796Z" clip-rule="evenodd" fill-rule="evenodd" fill="#000000"/>
</svg>
