<svg width="32" height="24" viewBox="0 0 32 24" fill="none" xmlns="http://www.w3.org/2000/svg" xmlns:xlink="http://www.w3.org/1999/xlink">
<path d="M15.334,5.23C19.784,5.23 24.063,6.939 27.288,10.002C27.53,10.238 27.919,10.235 28.158,9.995L30.479,7.654C30.6,7.533 30.668,7.367 30.667,7.196C30.666,7.024 30.596,6.86 30.474,6.739C22.01,-1.365 8.657,-1.365 0.193,6.739C0.071,6.86 0.001,7.024 0,7.196C-0.001,7.367 0.066,7.532 0.187,7.654L2.509,9.995C2.748,10.236 3.137,10.239 3.379,10.002C6.604,6.938 10.884,5.23 15.334,5.23ZM15.334,12.845C17.779,12.845 20.136,13.753 21.948,15.393C22.194,15.625 22.58,15.62 22.819,15.381L25.137,13.041C25.259,12.918 25.327,12.751 25.325,12.578C25.323,12.405 25.252,12.24 25.128,12.12C19.609,6.991 11.064,6.991 5.545,12.12C5.421,12.24 5.349,12.405 5.348,12.578C5.346,12.751 5.414,12.918 5.537,13.041L7.854,15.381C8.093,15.62 8.479,15.625 8.725,15.393C10.535,13.754 12.891,12.846 15.334,12.845ZM19.979,17.969C19.982,18.142 19.914,18.31 19.79,18.431L15.779,22.475C15.662,22.594 15.501,22.661 15.334,22.661C15.167,22.661 15.007,22.594 14.889,22.475L10.878,18.431C10.754,18.31 10.686,18.142 10.689,17.969C10.693,17.795 10.768,17.631 10.897,17.515C13.459,15.35 17.21,15.35 19.771,17.515C19.9,17.631 19.975,17.795 19.979,17.969Z" clip-rule="evenodd" fill-rule="evenodd" fill="#000000"/>
</svg>
