<svg width="30" height="24" viewBox="0 0 30 24" fill="none" xmlns="http://www.w3.org/2000/svg" xmlns:xlink="http://www.w3.org/1999/xlink">
<path d="M14.668,5.148C19.118,5.148 23.397,6.823 26.622,9.828C26.865,10.06 27.253,10.057 27.492,9.821L29.813,7.526C29.934,7.406 30.002,7.244 30.001,7.076C30,6.907 29.93,6.746 29.808,6.628C21.344,-1.32 7.991,-1.32 -0.473,6.628C-0.595,6.746 -0.665,6.907 -0.666,7.076C-0.667,7.244 -0.6,7.406 -0.479,7.526L1.843,9.821C2.082,10.057 2.471,10.06 2.713,9.828C5.938,6.823 10.218,5.148 14.668,5.148ZM14.665,12.599C17.112,12.599 19.473,13.512 21.287,15.161C21.532,15.395 21.919,15.39 22.158,15.15L24.479,12.795C24.601,12.672 24.669,12.504 24.667,12.33C24.666,12.156 24.594,11.99 24.47,11.869C18.945,6.71 10.39,6.71 4.865,11.869C4.74,11.99 4.669,12.156 4.667,12.33C4.666,12.505 4.734,12.672 4.856,12.795L7.177,15.15C7.416,15.39 7.802,15.395 8.048,15.161C9.861,13.513 12.219,12.6 14.665,12.599ZM19.334,18.046C19.337,18.217 19.269,18.382 19.144,18.502L15.115,22.484C14.997,22.601 14.836,22.667 14.667,22.667C14.499,22.667 14.338,22.601 14.22,22.484L10.19,18.502C10.066,18.382 9.997,18.217 10.001,18.046C10.004,17.875 10.08,17.713 10.21,17.599C12.783,15.467 16.552,15.467 19.125,17.599C19.255,17.713 19.33,17.875 19.334,18.046Z" clip-rule="evenodd" fill-rule="evenodd" fill="#000000"/>
</svg>
